<svg width="58" height="58" viewBox="0 0 58 58" fill="none" xmlns="http://www.w3.org/2000/svg">
<path d="M28.5385 5C15.5452 5 5 15.752 5 29C5 42.248 15.5452 53 28.5385 53C41.5317 53 52.0769 42.248 52.0769 29C52.0769 15.752 41.5317 5 28.5385 5ZM28.5385 12.2C32.4458 12.2 35.6 15.416 35.6 19.4C35.6 23.384 32.4458 26.6 28.5385 26.6C24.6311 26.6 21.4769 23.384 21.4769 19.4C21.4769 15.416 24.6311 12.2 28.5385 12.2ZM28.5385 46.28C22.6538 46.28 17.4518 43.208 14.4154 38.552C14.486 33.776 23.8308 31.16 28.5385 31.16C33.2226 31.16 42.5909 33.776 42.6615 38.552C39.6251 43.208 34.4231 46.28 28.5385 46.28Z" fill="white"/>
</svg>
