<svg width="58" height="58" viewBox="0 0 58 58" fill="none" xmlns="http://www.w3.org/2000/svg">
<path d="M50.1445 10.8899C48.9228 9.6567 47.4722 8.67843 45.8757 8.01098C44.2791 7.34354 42.5679 7 40.8397 7C39.1115 7 37.4003 7.34354 35.8037 8.01098C34.2072 8.67843 32.7566 9.6567 31.5349 10.8899L28.9994 13.4481L26.4639 10.8899C23.9961 8.40007 20.649 7.00129 17.159 7.00129C13.669 7.00129 10.322 8.40007 7.85419 10.8899C5.38639 13.3798 4 16.7567 4 20.2779C4 23.7991 5.38639 27.176 7.85419 29.6659L10.3897 32.224L28.9994 51L47.609 32.224L50.1445 29.6659C51.3668 28.4332 52.3364 26.9697 52.998 25.3589C53.6595 23.7481 54 22.0215 54 20.2779C54 18.5343 53.6595 16.8077 52.998 15.1969C52.3364 13.5861 51.3668 12.1226 50.1445 10.8899V10.8899Z" fill="white"/>
</svg>
