<svg width="51" height="53" viewBox="0 0 51 53" fill="none" xmlns="http://www.w3.org/2000/svg">
<path fill-rule="evenodd" clip-rule="evenodd" d="M50.9997 27.0849C50.9997 25.2594 50.8359 23.504 50.5316 21.8188H26.2842V31.7776H40.1399C39.543 34.9958 37.7292 37.7225 35.0025 39.548V46.0078H43.3229C48.1912 41.5258 50.9997 34.9256 50.9997 27.0849Z" fill="#4285F4"/>
<path fill-rule="evenodd" clip-rule="evenodd" d="M26.2834 52.2454C33.2346 52.2454 39.0624 49.94 43.3221 46.008L35.0017 39.5483C32.6963 41.093 29.7473 42.0058 26.2834 42.0058C19.5779 42.0058 13.9022 37.4769 11.8777 31.3917H3.27637V38.0621C7.51265 46.4761 16.2193 52.2454 26.2834 52.2454Z" fill="#34A853"/>
<path fill-rule="evenodd" clip-rule="evenodd" d="M11.8787 31.3914C11.3638 29.8467 11.0713 28.1967 11.0713 26.4998C11.0713 24.803 11.3638 23.1529 11.8787 21.6082V14.9378H3.27743C1.53377 18.4134 0.539062 22.3455 0.539062 26.4998C0.539062 30.6542 1.53377 34.5862 3.27743 38.0618L11.8787 31.3914Z" fill="#FBBC05"/>
<path fill-rule="evenodd" clip-rule="evenodd" d="M26.2834 10.9942C30.0633 10.9942 33.457 12.2932 36.1251 14.8443L43.5094 7.46008C39.0507 3.30571 33.2229 0.754578 26.2834 0.754578C16.2193 0.754578 7.51265 6.52388 3.27637 14.9379L11.8777 21.6083C13.9022 15.5231 19.5779 10.9942 26.2834 10.9942Z" fill="#EA4335"/>
</svg>
