<svg width="51" height="49" viewBox="0 0 51 49" fill="none" xmlns="http://www.w3.org/2000/svg">
<path opacity="0.1" d="M45.9 10.3158H38.25V5.15789C38.25 2.29526 35.9805 0 33.15 0H17.85C15.0195 0 12.75 2.29526 12.75 5.15789V10.3158H5.1C2.2695 10.3158 0 12.6111 0 15.4737V43.8421C0 46.7047 2.2695 49 5.1 49H45.9C48.7305 49 51 46.7047 51 43.8421V15.4737C51 12.6111 48.7305 10.3158 45.9 10.3158ZM17.85 5.15789H33.15V10.3158H17.85V5.15789ZM45.9 43.8421H5.1V38.6842H45.9V43.8421ZM45.9 30.9474H5.1V15.4737H12.75V20.6316H17.85V15.4737H33.15V20.6316H38.25V15.4737H45.9V30.9474Z" fill="black"/>
</svg>
