<svg width="51" height="52" viewBox="0 0 51 52" fill="none" xmlns="http://www.w3.org/2000/svg">
<path opacity="0.1" d="M25.5 0C11.424 0 0 11.648 0 26C0 40.352 11.424 52 25.5 52C39.576 52 51 40.352 51 26C51 11.648 39.576 0 25.5 0ZM25.5 7.8C29.733 7.8 33.15 11.284 33.15 15.6C33.15 19.916 29.733 23.4 25.5 23.4C21.267 23.4 17.85 19.916 17.85 15.6C17.85 11.284 21.267 7.8 25.5 7.8ZM25.5 44.72C19.125 44.72 13.4895 41.392 10.2 36.348C10.2765 31.174 20.4 28.34 25.5 28.34C30.5745 28.34 40.7235 31.174 40.8 36.348C37.5105 41.392 31.875 44.72 25.5 44.72Z" fill="black"/>
</svg>
